<?xml version="1.0" encoding="UTF-8" standalone="no"?>
<svg
   width="100%"
   height="100%"
   viewBox="0 0 3000 3000"
   version="1.1"
   xml:space="preserve"
   style="fill-rule:evenodd;clip-rule:evenodd;stroke-linejoin:round;stroke-miterlimit:2;"
   id="svg61"
   sodipodi:docname="logo.svg"
   inkscape:version="1.1 (c4e8f9ed74, 2021-05-24)"
   xmlns:inkscape="http://www.inkscape.org/namespaces/inkscape"
   xmlns:sodipodi="http://sodipodi.sourceforge.net/DTD/sodipodi-0.dtd"
   xmlns="http://www.w3.org/2000/svg"
   xmlns:svg="http://www.w3.org/2000/svg"
   xmlns:serif="http://www.serif.com/"><defs
   id="defs65" /><sodipodi:namedview
   id="namedview63"
   pagecolor="#ffffff"
   bordercolor="#666666"
   borderopacity="1.0"
   inkscape:pageshadow="2"
   inkscape:pageopacity="0.0"
   inkscape:pagecheckerboard="0"
   showgrid="false"
   inkscape:zoom="0.27633333"
   inkscape:cx="1500"
   inkscape:cy="1500"
   inkscape:window-width="1896"
   inkscape:window-height="1031"
   inkscape:window-x="10"
   inkscape:window-y="35"
   inkscape:window-maximized="1"
   inkscape:current-layer="svg61" />
    <rect
   id="Artboard1"
   x="0"
   y="0"
   width="3000"
   height="3000"
   style="fill:none;" />
    <g
   id="Artboard11"
   serif:id="Artboard1"
   style="fill:#ffffff">
        <g
   id="WF"
   transform="matrix(1.09312,0,0,1.09312,-131.462,-146.992)"
   style="fill:#ffffff">
            <path
   d="M1869.19,701.317L1530.98,2309.62L1904.18,2382.6L2064.63,1616.12L2565.71,1721.45L2636.15,1386.05L2135.24,1280.58L2172.74,1102.31L2673.49,1207.62L2741,884.592L1869.19,701.317Z"
   id="path55"
   style="fill:#ffffff" />
            <path
   d="M1482.3,2309.62L1822.63,691.57L1460,615.288L1295.38,1397.72L1256,1209.62L810.676,1209.62L771.211,1397.72L606.619,615.288L243.956,691.587L584.287,2309.62L958.135,2309.62L1033.28,1952.29L1108,2309.62L1482.3,2309.62Z"
   id="path57"
   style="fill:#ffffff" />
        </g>
    </g>
</svg>
